<?xml version="1.0" encoding="utf-8"?>
<!-- Generator: Adobe Illustrator 16.0.0, SVG Export Plug-In . SVG Version: 6.00 Build 0)  -->
<!DOCTYPE svg PUBLIC "-//W3C//DTD SVG 1.1//EN" "http://www.w3.org/Graphics/SVG/1.1/DTD/svg11.dtd">
<svg version="1.1" id="Layer_1" xmlns="http://www.w3.org/2000/svg" xmlns:xlink="http://www.w3.org/1999/xlink" x="0px" y="0px"
	 width="400px" height="400px" viewBox="0 0 400 400" enable-background="new 0 0 400 400" xml:space="preserve">
<g>
	<path fill="#22B573" d="M144.537,223.402c12.982,5.314,19.177,20.154,13.857,33.12c-5.314,12.927-20.138,19.156-33.098,13.846
		c-12.97-5.328-19.169-20.148-13.844-33.102C116.76,224.29,131.587,218.088,144.537,223.402z"/>
	<path fill="#22B573" d="M230.16,310.518c-7.278,4.129-16.51,1.553-20.638-5.706c-4.12-7.28-1.556-16.54,5.718-20.639
		c7.277-4.118,16.524-1.566,20.644,5.703C240.004,297.17,237.439,306.389,230.16,310.518z"/>
</g>
<g>
	<path fill="#4D4D4D" d="M200.348,392.315c-48.685,0-95.039-18.386-130.507-51.739C-6.695,268.584-10.396,147.77,61.576,71.241
		c35.866-38.133,86.471-60.003,138.835-60.003c48.675,0,95.032,18.366,130.5,51.741c76.527,71.983,80.23,192.794,8.257,269.329
		C303.311,370.449,252.702,392.315,200.348,392.315z M200.413,19.136c-50.932,0-98.201,20.423-133.072,57.508
		c-68.996,73.37-65.449,189.182,7.915,258.167c33.999,31.999,78.428,49.586,125.092,49.586c50.917,0,98.188-20.421,133.061-57.488
		c68.99-73.362,65.454-189.188-7.915-258.176C291.495,36.746,247.073,19.136,200.413,19.136z"/>
	<polygon fill="#4D4D4D" points="110.83,259.066 58.34,323.515 71.541,334.265 124.042,269.837 	"/>
	<g>
		<polygon fill="#4D4D4D" points="127.052,226.352 89.743,175.692 76.025,185.788 113.34,236.431 		"/>
		<path fill="#4D4D4D" d="M75.481,192.584c-11.361,0-20.699-9.257-20.813-20.609c-0.123-11.482,9.121-20.92,20.595-21.031h0.224
			c11.355,0,20.702,9.232,20.821,20.595c0.117,11.469-9.127,20.912-20.614,21.028L75.481,192.584z M75.487,162.293
			c-5.319,0.054-9.519,4.34-9.463,9.562c0.056,5.162,4.295,9.357,9.458,9.357h0.104c5.206-0.058,9.412-4.338,9.365-9.554
			C84.892,166.492,80.652,162.293,75.487,162.293z"/>
	</g>
	<g>
		<polygon fill="#4D4D4D" points="142.478,222.329 145.442,87.009 128.405,86.64 125.452,221.952 		"/>
		<path fill="#4D4D4D" d="M136.54,96.023c-4.549,0-8.882-1.453-12.528-4.208c-4.442-3.336-7.312-8.225-8.076-13.72
			c-0.778-5.521,0.637-10.991,3.996-15.443c3.963-5.258,10.032-8.27,16.632-8.27c4.55,0,8.878,1.45,12.531,4.194
			c9.156,6.918,10.996,19.998,4.071,29.161C149.197,93.005,143.138,96.023,136.54,96.023z M136.564,65.741
			c-3.002,0-5.765,1.363-7.567,3.754c-1.517,2.03-2.168,4.512-1.828,7.017c0.363,2.498,1.665,4.721,3.688,6.241
			c1.644,1.256,3.615,1.913,5.682,1.913c2.996,0,5.76-1.374,7.566-3.765c3.144-4.166,2.312-10.109-1.86-13.255
			C140.593,66.39,138.63,65.741,136.564,65.741z"/>
	</g>
	<g>
		<polygon fill="#4D4D4D" points="159.425,233.312 267.772,88.558 254.133,78.348 145.788,223.1 		"/>
		<path fill="#4D4D4D" d="M267.396,94.599c-9.131,0-17.115-5.866-19.856-14.596c-1.665-5.306-1.161-10.94,1.418-15.874
			c2.566-4.929,6.909-8.558,12.221-10.224c2.024-0.635,4.127-0.963,6.231-0.963c9.142,0,17.119,5.871,19.862,14.595
			c3.435,10.957-2.683,22.658-13.641,26.095C271.607,94.273,269.507,94.599,267.396,94.599z M267.41,64.296
			c-0.96,0-1.914,0.157-2.83,0.447c-2.424,0.758-4.389,2.401-5.561,4.638c-1.185,2.248-1.395,4.809-0.65,7.224
			c1.253,3.978,4.874,6.634,9.027,6.634c0.954,0,1.914-0.149,2.84-0.447c4.981-1.553,7.757-6.875,6.198-11.844
			C275.191,66.978,271.563,64.296,267.41,64.296z"/>
	</g>
	<g>
		<polygon fill="#4D4D4D" points="163.67,255.826 309.043,177.51 300.968,162.514 155.601,240.826 		"/>
		<path fill="#4D4D4D" d="M314.948,184.779c-0.906,0-1.817-0.075-2.722-0.191c-5.512-0.723-10.415-3.55-13.805-7.952
			c-3.396-4.415-4.863-9.872-4.14-15.385c1.357-10.33,10.217-18.127,20.624-18.127c0.909,0,1.827,0.059,2.727,0.181
			c5.526,0.722,10.415,3.544,13.808,7.957c3.387,4.416,4.864,9.883,4.137,15.388C334.221,176.98,325.357,184.779,314.948,184.779z
			 M314.906,154.481c-4.727,0-8.739,3.539-9.358,8.236c-0.327,2.515,0.338,4.997,1.877,7.005c1.548,1.991,3.771,3.276,6.29,3.613
			c0.401,0.048,0.821,0.075,1.233,0.075c4.726,0,8.744-3.544,9.366-8.239c0.324-2.5-0.337-4.986-1.88-6.995
			c-1.538-1.999-3.769-3.284-6.274-3.608C315.742,154.515,315.324,154.481,314.906,154.481z"/>
	</g>
	<g>
		<polygon fill="#4D4D4D" points="236.375,287.427 278.331,247.063 268.485,236.841 226.541,277.207 		"/>
		<path fill="#4D4D4D" d="M279.986,253.143c-9.033,0-16.809-6.743-18.078-15.701c-0.697-4.846,0.536-9.655,3.47-13.571
			c2.926-3.899,7.212-6.435,12.045-7.137c0.866-0.101,1.744-0.164,2.601-0.164c9.044,0,16.821,6.732,18.101,15.691
			c0.69,4.835-0.545,9.66-3.479,13.565c-2.925,3.899-7.208,6.444-12.048,7.146C281.742,253.084,280.867,253.143,279.986,253.143z
			 M280.023,227.903c-0.324,0-0.66,0.021-0.997,0.085c-1.833,0.266-3.456,1.217-4.565,2.715c-1.117,1.467-1.584,3.3-1.318,5.123
			c0.532,3.724,4.078,6.428,7.848,5.908c1.845-0.276,3.465-1.244,4.57-2.715c1.125-1.479,1.576-3.332,1.325-5.144
			C286.402,230.47,283.453,227.903,280.023,227.903z"/>
	</g>
	<g>
		<polygon fill="#4D4D4D" points="214.397,310.849 212.641,336.942 226.812,337.914 228.571,311.804 		"/>
		<path fill="#4D4D4D" d="M219.59,365.425c-4.257,0-8.393-1.505-11.672-4.221c-7.765-6.446-8.843-17.987-2.407-25.755
			c3.483-4.218,8.615-6.616,14.084-6.616c4.247,0,8.396,1.483,11.668,4.188c7.776,6.44,8.86,17.995,2.423,25.766
			C230.197,363,225.055,365.425,219.59,365.425z M219.595,340.167c-2.064,0-4.017,0.921-5.34,2.53
			c-2.441,2.969-2.023,7.332,0.919,9.765c1.586,1.324,3.277,1.629,4.416,1.629c2.075,0,4.036-0.932,5.357-2.547
			c2.436-2.928,2.025-7.317-0.917-9.775C222.438,340.477,220.748,340.167,219.595,340.167z"/>
	</g>
	<g>
		<polygon fill="#4D4D4D" points="238.041,307.452 287.646,315.715 290.182,300.513 240.573,292.256 		"/>
		<path fill="#4D4D4D" d="M299.368,328.647c-5.188,0-10.085-2.035-13.736-5.738c-3.649-3.682-5.647-8.543-5.619-13.708
			c0.03-5.165,2.056-10.018,5.727-13.656c3.649-3.655,8.485-5.623,13.625-5.623c5.205,0,10.083,2.021,13.748,5.703
			c3.64,3.677,5.643,8.549,5.618,13.714c-0.028,5.176-2.054,10.036-5.728,13.681C309.354,326.656,304.506,328.647,299.368,328.647z
			 M299.364,301.267c-2.113,0-4.12,0.812-5.626,2.334c-1.521,1.493-2.369,3.479-2.369,5.63c-0.005,2.153,0.819,4.161,2.321,5.683
			c1.513,1.523,3.528,2.362,5.678,2.362c2.136,0,4.14-0.839,5.632-2.336c1.523-1.499,2.366-3.507,2.375-5.644
			c0.01-2.135-0.812-4.15-2.32-5.652C303.536,302.106,301.515,301.267,299.364,301.267z"/>
	</g>
	<polygon fill="#4D4D4D" points="150.057,273.999 208.324,300.799 215.449,285.338 157.174,258.504 	"/>
	<path fill="#4D4D4D" d="M222.72,318.175c-7.489,0-14.445-4.054-18.138-10.567c-2.73-4.853-3.426-10.47-1.945-15.82
		c1.49-5.361,4.968-9.803,9.811-12.569c3.131-1.766,6.673-2.702,10.243-2.702c7.5,0,14.442,4.062,18.134,10.591
		c2.741,4.815,3.432,10.446,1.945,15.797c-1.486,5.361-4.969,9.826-9.805,12.572C229.838,317.235,226.296,318.175,222.72,318.175z
		 M222.69,287.871c-1.612,0-3.224,0.441-4.649,1.249c-2.198,1.222-3.778,3.268-4.446,5.717c-0.687,2.43-0.368,4.974,0.87,7.175
		c1.683,2.964,4.844,4.808,8.255,4.808c1.625,0,3.22-0.441,4.654-1.238c2.188-1.254,3.771-3.272,4.455-5.717
		c0.662-2.449,0.356-4.974-0.887-7.188C229.262,289.73,226.104,287.871,222.69,287.871z"/>
	<path fill="#4D4D4D" d="M134.913,279.19c-4.21,0-8.337-0.805-12.252-2.408c-7.989-3.263-14.217-9.479-17.554-17.423
		c-3.332-7.98-3.363-16.748-0.091-24.719c5.008-12.189,16.738-20.075,29.914-20.075c4.205,0,8.333,0.824,12.247,2.413
		c7.982,3.284,14.219,9.469,17.55,17.428c3.324,7.977,3.362,16.754,0.089,24.714C159.82,271.342,148.073,279.19,134.913,279.19z
		 M134.93,228.455c-7.517,0-14.215,4.479-17.061,11.445c-1.875,4.543-1.849,9.555,0.04,14.087c1.908,4.548,5.468,8.082,10.011,9.958
		c2.251,0.918,4.596,1.376,6.993,1.376c7.509,0,14.216-4.495,17.056-11.451c1.873-4.564,1.861-9.549-0.047-14.081
		c-1.897-4.559-5.443-8.087-10.011-9.979C139.669,228.907,137.326,228.455,134.93,228.455z"/>
</g>
</svg>
