<?xml version="1.0" encoding="utf-8"?>
<!-- Generator: Adobe Illustrator 16.0.0, SVG Export Plug-In . SVG Version: 6.00 Build 0)  -->
<!DOCTYPE svg PUBLIC "-//W3C//DTD SVG 1.1//EN" "http://www.w3.org/Graphics/SVG/1.1/DTD/svg11.dtd">
<svg version="1.1" id="Layer_1" xmlns="http://www.w3.org/2000/svg" xmlns:xlink="http://www.w3.org/1999/xlink" x="0px" y="0px"
, width="900px" height="357.667px" viewBox="0 0 900 357.667" enable-background="new 0 0 900 357.667" xml:space="preserve">
<line fill="none" stroke="#000000" stroke-width="0.1556" stroke-miterlimit="10" x1="16.171" y1="16.171" x2="16.171" y2="0"/>
<line fill="none" stroke="#000000" stroke-width="0.1556" stroke-miterlimit="10" x1="0" y1="16.171" x2="16.171" y2="16.171"/>
<line fill="none" stroke="#000000" stroke-width="0.1556" stroke-miterlimit="10" x1="883.83" y1="16.17" x2="900" y2="16.17"/>
<line fill="none" stroke="#000000" stroke-width="0.1556" stroke-miterlimit="10" x1="883.83" y1="0" x2="883.83" y2="16.17"/>
<line fill="none" stroke="#000000" stroke-width="0.1556" stroke-miterlimit="10" x1="16.171" y1="357.667" x2="16.171" y2="341.496"/>
<line fill="none" stroke="#000000" stroke-width="0.1556" stroke-miterlimit="10" x1="16.171" y1="341.496" x2="0" y2="341.496"/>
<line fill="none" stroke="#000000" stroke-width="0.1556" stroke-miterlimit="10" x1="900" y1="341.497" x2="883.83" y2="341.497"/>
<line fill="none" stroke="#000000" stroke-width="0.1556" stroke-miterlimit="10" x1="883.83" y1="341.497" x2="883.83" y2="357.667"/>
<rect x="23.5" y="36.5" fill="none" stroke="#000000" stroke-width="1.585" stroke-miterlimit="10" width="415.667" height="239.639"/>
<rect x="459.33" y="36.5" fill="none" stroke="#000000" stroke-width="1.5674" stroke-miterlimit="10" width="406.503" height="239.639"/>
<g>
,<path d="M193.506,303.67h7.987v1.606h-6.073v4.929h5.611v1.584h-5.611v6.711h-1.914V303.67z"/>
,<path d="M205.738,304.858c0.022,0.66-0.462,1.188-1.232,1.188c-0.682,0-1.166-0.527-1.166-1.188c0-0.683,0.506-1.211,1.21-1.211
,,C205.276,303.647,205.738,304.176,205.738,304.858z M203.582,318.5v-10.649h1.936V318.5H203.582z"/>
,<path d="M208.73,311.173c0-1.254-0.022-2.332-0.088-3.322h1.694l0.066,2.09h0.088c0.484-1.43,1.65-2.332,2.948-2.332
,,c0.22,0,0.374,0.022,0.55,0.066v1.826c-0.198-0.044-0.396-0.066-0.66-0.066c-1.364,0-2.333,1.034-2.597,2.486
,,c-0.044,0.265-0.088,0.572-0.088,0.902v5.677h-1.914V311.173z"/>
,<path d="M215.66,316.52c0.572,0.374,1.584,0.771,2.552,0.771c1.408,0,2.068-0.704,2.068-1.584c0-0.925-0.55-1.431-1.98-1.959
,,c-1.914-0.682-2.816-1.738-2.816-3.015c0-1.716,1.386-3.124,3.675-3.124c1.078,0,2.024,0.308,2.618,0.66l-0.484,1.408
,,c-0.418-0.264-1.188-0.616-2.178-0.616c-1.145,0-1.782,0.66-1.782,1.452c0,0.88,0.638,1.276,2.024,1.805
,,c1.849,0.704,2.794,1.628,2.794,3.212c0,1.87-1.452,3.19-3.982,3.19c-1.166,0-2.244-0.286-2.993-0.726L215.66,316.52z"/>
,<path d="M226.968,304.792v3.059h2.772v1.474h-2.772v5.743c0,1.32,0.374,2.068,1.452,2.068c0.506,0,0.88-0.066,1.122-0.132
,,l0.088,1.452c-0.374,0.154-0.968,0.264-1.716,0.264c-0.902,0-1.628-0.286-2.09-0.813c-0.55-0.572-0.748-1.519-0.748-2.772v-5.81
,,h-1.65v-1.474h1.65v-2.553L226.968,304.792z"/>
,<path d="M236.779,318.5v-9.176h-1.496v-1.474h1.496v-0.462c0-1.475,0.506-2.795,1.496-3.675c0.836-0.704,1.937-1.078,3.411-1.078
,,c1.232,0,2.398,0.264,3.19,0.704v15.16h-1.914v-14.082c-0.33-0.176-0.836-0.286-1.584-0.286c-2.024,0-2.684,1.475-2.684,3.19v0.528
,,h2.486v1.474h-2.486v9.176H236.779z"/>
,<path d="M257.725,313.087c0,3.938-2.729,5.655-5.303,5.655c-2.882,0-5.105-2.112-5.105-5.479c0-3.565,2.333-5.655,5.281-5.655
,,C255.656,307.608,257.725,309.831,257.725,313.087z M249.275,313.197c0,2.332,1.342,4.093,3.234,4.093
,,c1.848,0,3.234-1.738,3.234-4.137c0-1.805-0.902-4.093-3.19-4.093C250.266,309.061,249.275,311.173,249.275,313.197z"/>
,<path d="M269.803,313.087c0,3.938-2.729,5.655-5.303,5.655c-2.882,0-5.105-2.112-5.105-5.479c0-3.565,2.333-5.655,5.281-5.655
,,C267.734,307.608,269.803,309.831,269.803,313.087z M261.354,313.197c0,2.332,1.342,4.093,3.234,4.093
,,c1.848,0,3.234-1.738,3.234-4.137c0-1.805-0.902-4.093-3.19-4.093C262.344,309.061,261.354,311.173,261.354,313.197z"/>
,<path d="M272.243,311.173c0-1.254-0.022-2.332-0.088-3.322h1.694l0.066,2.09h0.088c0.484-1.43,1.65-2.332,2.948-2.332
,,c0.22,0,0.374,0.022,0.55,0.066v1.826c-0.198-0.044-0.396-0.066-0.66-0.066c-1.364,0-2.333,1.034-2.597,2.486
,,c-0.044,0.265-0.088,0.572-0.088,0.902v5.677h-1.914V311.173z"/>
</g>
<g>
,<path d="M633.242,316.168c0.857,0.527,2.112,0.968,3.433,0.968c1.958,0,3.103-1.034,3.103-2.53c0-1.386-0.793-2.179-2.795-2.948
,,c-2.42-0.858-3.916-2.112-3.916-4.203c0-2.31,1.914-4.026,4.797-4.026c1.518,0,2.618,0.353,3.277,0.727l-0.527,1.562
,,c-0.484-0.264-1.475-0.704-2.816-0.704c-2.024,0-2.795,1.211-2.795,2.223c0,1.386,0.902,2.068,2.949,2.86
,,c2.508,0.968,3.784,2.179,3.784,4.356c0,2.288-1.694,4.269-5.192,4.269c-1.431,0-2.992-0.418-3.785-0.946L633.242,316.168z"/>
,<path d="M645.496,313.527c0.045,2.618,1.717,3.696,3.652,3.696c1.387,0,2.223-0.242,2.949-0.55l0.33,1.386
,,c-0.683,0.309-1.849,0.66-3.543,0.66c-3.278,0-5.236-2.156-5.236-5.368c0-3.213,1.893-5.743,4.994-5.743
,,c3.477,0,4.4,3.059,4.4,5.017c0,0.396-0.043,0.704-0.065,0.902H645.496z M651.174,312.141c0.021-1.231-0.507-3.146-2.686-3.146
,,c-1.957,0-2.816,1.804-2.97,3.146H651.174z"/>
,<path d="M663.031,318.104c-0.506,0.265-1.629,0.616-3.059,0.616c-3.213,0-5.303-2.178-5.303-5.435c0-3.278,2.244-5.654,5.721-5.654
,,c1.145,0,2.156,0.285,2.684,0.55l-0.439,1.496c-0.462-0.264-1.188-0.506-2.244-0.506c-2.442,0-3.763,1.804-3.763,4.026
,,c0,2.464,1.584,3.982,3.696,3.982c1.101,0,1.826-0.286,2.377-0.528L663.031,318.104z"/>
,<path d="M674.801,313.087c0,3.938-2.729,5.655-5.303,5.655c-2.882,0-5.104-2.112-5.104-5.479c0-3.565,2.333-5.655,5.28-5.655
,,C672.732,307.608,674.801,309.831,674.801,313.087z M666.352,313.197c0,2.332,1.343,4.093,3.234,4.093
,,c1.849,0,3.234-1.738,3.234-4.137c0-1.805-0.901-4.093-3.189-4.093C667.342,309.061,666.352,311.173,666.352,313.197z"/>
,<path d="M677.242,310.732c0-1.1-0.021-2.002-0.088-2.882h1.716l0.11,1.76h0.044c0.528-1.012,1.761-2.002,3.521-2.002
,,c1.475,0,3.762,0.88,3.762,4.532v6.359h-1.936v-6.139c0-1.717-0.639-3.146-2.465-3.146c-1.275,0-2.266,0.902-2.596,1.98
,,c-0.088,0.241-0.133,0.571-0.133,0.901v6.403h-1.936V310.732z"/>
,<path d="M698.648,302.878v12.872c0,0.945,0.022,2.023,0.088,2.75h-1.738l-0.088-1.849h-0.043c-0.595,1.188-1.893,2.091-3.631,2.091
,,c-2.574,0-4.555-2.179-4.555-5.413c-0.022-3.542,2.178-5.721,4.774-5.721c1.628,0,2.729,0.771,3.212,1.628h0.045v-6.358H698.648z
,, M696.713,312.186c0-0.242-0.022-0.572-0.088-0.814c-0.287-1.232-1.343-2.244-2.795-2.244c-2.002,0-3.19,1.76-3.19,4.114
,,c0,2.156,1.056,3.938,3.146,3.938c1.298,0,2.486-0.858,2.839-2.311c0.065-0.264,0.088-0.527,0.088-0.836V312.186z"/>
,<path d="M706.721,318.5v-9.176h-1.496v-1.474h1.496v-0.462c0-1.475,0.507-2.795,1.496-3.675c0.837-0.704,1.938-1.078,3.411-1.078
,,c1.232,0,2.398,0.264,3.19,0.704v15.16h-1.914v-14.082c-0.33-0.176-0.836-0.286-1.584-0.286c-2.025,0-2.685,1.475-2.685,3.19v0.528
,,h2.486v1.474h-2.486v9.176H706.721z"/>
,<path d="M727.666,313.087c0,3.938-2.729,5.655-5.303,5.655c-2.882,0-5.104-2.112-5.104-5.479c0-3.565,2.333-5.655,5.28-5.655
,,C725.598,307.608,727.666,309.831,727.666,313.087z M719.217,313.197c0,2.332,1.343,4.093,3.234,4.093
,,c1.849,0,3.234-1.738,3.234-4.137c0-1.805-0.901-4.093-3.189-4.093C720.207,309.061,719.217,311.173,719.217,313.197z"/>
,<path d="M739.744,313.087c0,3.938-2.729,5.655-5.303,5.655c-2.882,0-5.104-2.112-5.104-5.479c0-3.565,2.333-5.655,5.28-5.655
,,C737.676,307.608,739.744,309.831,739.744,313.087z M731.295,313.197c0,2.332,1.343,4.093,3.234,4.093
,,c1.849,0,3.234-1.738,3.234-4.137c0-1.805-0.901-4.093-3.189-4.093C732.285,309.061,731.295,311.173,731.295,313.197z"/>
,<path d="M742.186,311.173c0-1.254-0.023-2.332-0.089-3.322h1.694l0.066,2.09h0.088c0.484-1.43,1.65-2.332,2.948-2.332
,,c0.22,0,0.374,0.022,0.55,0.066v1.826c-0.197-0.044-0.396-0.066-0.66-0.066c-1.363,0-2.332,1.034-2.596,2.486
,,c-0.045,0.265-0.088,0.572-0.088,0.902v5.677h-1.914V311.173z"/>
</g>
<rect x="29.5" y="41.834" fill="#F77E2B" stroke="#000000" stroke-width="2" stroke-miterlimit="10" width="61.229" height="98.198"/>
<rect x="97.816" y="41.834" fill="#FFFFFF" stroke="#000000" stroke-width="2" stroke-miterlimit="10" width="61.229" height="98.198"/>
<rect x="168.132" y="41.834" fill="#BB56FE" stroke="#000000" stroke-width="2" stroke-miterlimit="10" width="61.229" height="98.198"/>
<rect x="229.362" y="41.834" fill="#F77E2A" stroke="#000000" stroke-width="2" stroke-miterlimit="10" width="61.229" height="98.198"/>
<rect x="29.5" y="171.802" fill="#FFFFFF" stroke="#000000" stroke-width="2" stroke-miterlimit="10" width="61.229" height="98.198"/>
<rect x="97.816" y="171.802" fill="#CBCBCB" stroke="#000000" stroke-width="2" stroke-miterlimit="10" width="61.229" height="98.198"/>
<rect x="290.591" y="171.802" fill="#FFFFFF" stroke="#000000" stroke-width="2.1238" stroke-miterlimit="10" width="61.229" height="98.198"/>
<rect x="290.591" y="41.834" fill="#F77E2A" stroke="#000000" stroke-width="2" stroke-miterlimit="10" width="54.298" height="49.1"/>
<rect x="290.591" y="90.934" fill="#F77E2A" stroke="#000000" stroke-width="2" stroke-miterlimit="10" width="54.298" height="49.1"/>
<rect x="168.132" y="171.802" fill="#FFFFFF" stroke="#000000" stroke-width="2" stroke-miterlimit="10" width="122.459" height="98.198"/>
<rect x="359.906" y="41.834" fill="#CBCBCB" stroke="#000000" stroke-width="2" stroke-miterlimit="10" width="73.938" height="228.166"/>
<rect x="465.833" y="41.834" fill="#FFFFFF" stroke="#000000" stroke-width="2" stroke-miterlimit="10" width="41.871" height="134.694"/>
<rect x="511.704" y="41.834" fill="#FFFFFF" stroke="#000000" stroke-width="2.1238" stroke-miterlimit="10" width="35.833" height="97.537"/>
<rect x="547.11" y="41.834" fill="#FFFFFF" stroke="#000000" stroke-width="2.1238" stroke-miterlimit="10" width="35.833" height="97.537"/>
<rect x="595.362" y="41.834" fill="#FFFFFF" stroke="#000000" stroke-width="2.1238" stroke-miterlimit="10" width="58.577" height="97.537"/>
<rect x="653.939" y="41.834" fill="#FFFFFF" stroke="#000000" stroke-width="2.1238" stroke-miterlimit="10" width="63.863" height="97.537"/>
<rect x="732.026" y="41.834" fill="#CBCBCB" stroke="#000000" stroke-width="2" stroke-miterlimit="10" width="127.438" height="97.537"/>
<rect x="732.026" y="176.528" fill="#CBCBCB" stroke="#000000" stroke-width="2.0448" stroke-miterlimit="10" width="127.438" height="93.472"/>
<rect x="607.973" y="176.528" fill="#34B458" stroke="#000000" stroke-width="2" stroke-miterlimit="10" width="109.31" height="93.472"/>
<rect x="465.833" y="176.528" fill="#A6FD51" stroke="#000000" stroke-width="2" stroke-miterlimit="10" width="106.305" height="93.472"/>
<rect x="578.943" y="176.528" fill="#FFFFFF" stroke="#000000" stroke-width="2.1238" stroke-miterlimit="10" width="29.029" height="93.472"/>
<g>
,<g>
,,<line fill="none" stroke="#000000" stroke-width="2" stroke-miterlimit="10" x1="163.833" y1="36.5" x2="163.833" y2="38.5"/>
,,
,,,<line fill="none" stroke="#000000" stroke-width="2" stroke-miterlimit="10" stroke-dasharray="4.028,3.021" x1="163.833" y1="41.521" x2="163.833" y2="272.628"/>
,,
,,,<line fill="none" stroke="#000000" stroke-width="2" stroke-miterlimit="10" x1="163.833" y1="274.139" x2="163.833" y2="276.139"/>
,</g>
</g>
<g>
,<g>
,,<line fill="none" stroke="#000000" stroke-width="2" stroke-miterlimit="10" x1="725.833" y1="36.5" x2="725.833" y2="38.5"/>
,,
,,,<line fill="none" stroke="#000000" stroke-width="2" stroke-miterlimit="10" stroke-dasharray="4.028,3.021" x1="725.833" y1="41.521" x2="725.833" y2="272.628"/>
,,
,,,<line fill="none" stroke="#000000" stroke-width="2" stroke-miterlimit="10" x1="725.833" y1="274.139" x2="725.833" y2="276.139"/>
,</g>
</g>
<g>
,<path d="M744.103,131.747c-0.603,0.225-1.778,0.532-3.04,0.532c-1.596,0-2.801-0.406-3.697-1.261
,,c-0.841-0.798-1.331-2.045-1.316-3.474c0-2.983,2.129-4.902,5.252-4.902c1.163,0,2.073,0.238,2.508,0.448l-0.379,1.387
,,c-0.518-0.225-1.148-0.406-2.143-0.406c-2.018,0-3.432,1.19-3.432,3.39c0,2.144,1.316,3.418,3.277,3.418
,,c0.617,0,1.078-0.084,1.303-0.196v-2.354h-1.667v-1.358h3.334V131.747z"/>
,<path d="M746.828,125.36l1.233,3.655c0.14,0.421,0.28,0.938,0.378,1.331h0.042c0.112-0.393,0.238-0.896,0.364-1.345l1.064-3.642
,,h1.85l-1.709,4.65c-0.939,2.549-1.569,3.684-2.381,4.384c-0.673,0.603-1.373,0.827-1.808,0.883l-0.392-1.457
,,c0.293-0.069,0.658-0.224,1.008-0.476c0.322-0.211,0.701-0.617,0.938-1.079c0.07-0.126,0.112-0.224,0.112-0.308
,,c0-0.07-0.014-0.169-0.098-0.337l-2.494-6.261H746.828z"/>
,<path d="M752.75,127.39c0-0.784-0.014-1.442-0.056-2.03h1.513l0.084,1.022h0.042c0.294-0.532,1.036-1.177,2.171-1.177
,,c1.191,0,2.424,0.771,2.424,2.928v4.048h-1.723v-3.853c0-0.98-0.365-1.723-1.303-1.723c-0.688,0-1.163,0.49-1.346,1.009
,,c-0.056,0.154-0.069,0.364-0.069,0.561v4.006h-1.737V127.39z"/>
,<path d="M764.596,132.181l-0.111-0.757h-0.043c-0.42,0.533-1.135,0.911-2.017,0.911c-1.372,0-2.144-0.995-2.144-2.031
,,c0-1.723,1.527-2.592,4.049-2.577v-0.112c0-0.448-0.182-1.19-1.387-1.19c-0.672,0-1.373,0.21-1.835,0.504l-0.337-1.12
,,c0.505-0.309,1.387-0.603,2.466-0.603c2.185,0,2.815,1.387,2.815,2.871v2.466c0,0.616,0.028,1.219,0.098,1.639H764.596z
,, M764.372,128.847c-1.219-0.028-2.382,0.238-2.382,1.274c0,0.673,0.435,0.981,0.98,0.981c0.688,0,1.191-0.448,1.346-0.938
,,c0.041-0.127,0.056-0.267,0.056-0.379V128.847z"/>
,<path d="M769.089,129.253c0.042,1.232,1.009,1.765,2.101,1.765c0.799,0,1.373-0.111,1.892-0.308l0.253,1.19
,,c-0.589,0.238-1.401,0.42-2.382,0.42c-2.214,0-3.517-1.358-3.517-3.445c0-1.892,1.148-3.67,3.334-3.67
,,c2.213,0,2.941,1.82,2.941,3.319c0,0.322-0.027,0.574-0.056,0.729H769.089z M772.086,128.049c0.015-0.631-0.266-1.667-1.414-1.667
,,c-1.064,0-1.513,0.966-1.583,1.667H772.086z"/>
,<path d="M780.109,131.971c-0.365,0.168-1.079,0.35-1.934,0.35c-2.129,0-3.516-1.358-3.516-3.474c0-2.045,1.4-3.642,3.795-3.642
,,c0.631,0,1.275,0.14,1.668,0.322l-0.309,1.288c-0.28-0.126-0.687-0.266-1.303-0.266c-1.316,0-2.102,0.967-2.087,2.213
,,c0,1.401,0.91,2.199,2.087,2.199c0.603,0,1.022-0.126,1.359-0.266L780.109,131.971z"/>
,<path d="M787.74,128.708c0,2.507-1.766,3.628-3.502,3.628c-1.934,0-3.418-1.331-3.418-3.517c0-2.24,1.471-3.613,3.529-3.613
,,C786.381,125.206,787.74,126.634,787.74,128.708z M782.599,128.777c0,1.317,0.645,2.312,1.695,2.312
,,c0.98,0,1.667-0.967,1.667-2.339c0-1.064-0.477-2.283-1.653-2.283C783.089,126.466,782.599,127.643,782.599,128.777z"/>
,<path d="M789.15,122.236h1.736v9.945h-1.736V122.236z"/>
,<path d="M799.233,128.708c0,2.507-1.765,3.628-3.502,3.628c-1.933,0-3.418-1.331-3.418-3.517c0-2.24,1.471-3.613,3.53-3.613
,,C797.875,125.206,799.233,126.634,799.233,128.708z M794.092,128.777c0,1.317,0.645,2.312,1.695,2.312
,,c0.98,0,1.667-0.967,1.667-2.339c0-1.064-0.476-2.283-1.653-2.283C794.582,126.466,794.092,127.643,794.092,128.777z"/>
,<path d="M806.877,125.36c-0.027,0.462-0.056,1.022-0.056,1.961v3.866c0,1.429-0.294,2.451-1.009,3.096
,,c-0.715,0.63-1.695,0.826-2.633,0.826c-0.869,0-1.793-0.183-2.382-0.547l0.378-1.303c0.435,0.253,1.163,0.519,1.989,0.519
,,c1.12,0,1.961-0.588,1.961-2.059v-0.589h-0.028c-0.392,0.603-1.092,1.009-1.988,1.009c-1.695,0-2.9-1.4-2.9-3.334
,,c0-2.241,1.457-3.6,3.096-3.6c1.037,0,1.653,0.504,1.976,1.064h0.028l0.07-0.91H806.877z M805.098,128.091
,,c0-0.154-0.014-0.322-0.056-0.463c-0.183-0.63-0.673-1.106-1.401-1.106c-0.966,0-1.68,0.841-1.68,2.228
,,c0,1.162,0.588,2.101,1.666,2.101c0.645,0,1.205-0.42,1.401-1.036c0.042-0.183,0.069-0.42,0.069-0.616V128.091z"/>
,<path d="M809.744,125.36l1.232,3.655c0.141,0.421,0.281,0.938,0.379,1.331h0.041c0.113-0.393,0.238-0.896,0.365-1.345l1.064-3.642
,,h1.849l-1.709,4.65c-0.938,2.549-1.569,3.684-2.381,4.384c-0.673,0.603-1.373,0.827-1.808,0.883l-0.392-1.457
,,c0.294-0.069,0.658-0.224,1.009-0.476c0.322-0.211,0.699-0.617,0.938-1.079c0.07-0.126,0.113-0.224,0.113-0.308
,,c0-0.07-0.015-0.169-0.099-0.337l-2.493-6.261H809.744z"/>
</g>
<g>
,<path d="M744.103,262.747c-0.603,0.225-1.778,0.532-3.04,0.532c-1.596,0-2.801-0.406-3.697-1.261
,,c-0.841-0.798-1.331-2.045-1.316-3.474c0-2.983,2.129-4.902,5.252-4.902c1.163,0,2.073,0.238,2.508,0.448l-0.379,1.387
,,c-0.518-0.225-1.148-0.406-2.143-0.406c-2.018,0-3.432,1.19-3.432,3.39c0,2.144,1.316,3.418,3.277,3.418
,,c0.617,0,1.078-0.084,1.303-0.196v-2.354h-1.667v-1.358h3.334V262.747z"/>
,<path d="M746.828,256.36l1.233,3.655c0.14,0.421,0.28,0.938,0.378,1.331h0.042c0.112-0.393,0.238-0.896,0.364-1.345l1.064-3.642
,,h1.85l-1.709,4.65c-0.939,2.549-1.569,3.684-2.381,4.384c-0.673,0.603-1.373,0.827-1.808,0.883l-0.392-1.457
,,c0.293-0.069,0.658-0.224,1.008-0.476c0.322-0.211,0.701-0.617,0.938-1.079c0.07-0.126,0.112-0.224,0.112-0.308
,,c0-0.07-0.014-0.169-0.098-0.337l-2.494-6.261H746.828z"/>
,<path d="M752.75,258.39c0-0.784-0.014-1.442-0.056-2.03h1.513l0.084,1.022h0.042c0.294-0.532,1.036-1.177,2.171-1.177
,,c1.191,0,2.424,0.771,2.424,2.928v4.048h-1.723v-3.853c0-0.98-0.365-1.723-1.303-1.723c-0.688,0-1.163,0.49-1.346,1.009
,,c-0.056,0.154-0.069,0.364-0.069,0.561v4.006h-1.737V258.39z"/>
,<path d="M764.596,263.181l-0.111-0.757h-0.043c-0.42,0.533-1.135,0.911-2.017,0.911c-1.372,0-2.144-0.995-2.144-2.031
,,c0-1.723,1.527-2.592,4.049-2.577v-0.112c0-0.448-0.182-1.19-1.387-1.19c-0.672,0-1.373,0.21-1.835,0.504l-0.337-1.12
,,c0.505-0.309,1.387-0.603,2.466-0.603c2.185,0,2.815,1.387,2.815,2.871v2.466c0,0.616,0.028,1.219,0.098,1.639H764.596z
,, M764.372,259.847c-1.219-0.028-2.382,0.238-2.382,1.274c0,0.673,0.435,0.981,0.98,0.981c0.688,0,1.191-0.448,1.346-0.938
,,c0.041-0.127,0.056-0.267,0.056-0.379V259.847z"/>
,<path d="M769.089,260.253c0.042,1.232,1.009,1.765,2.101,1.765c0.799,0,1.373-0.111,1.892-0.308l0.253,1.19
,,c-0.589,0.238-1.401,0.42-2.382,0.42c-2.214,0-3.517-1.358-3.517-3.445c0-1.892,1.148-3.67,3.334-3.67
,,c2.213,0,2.941,1.82,2.941,3.319c0,0.322-0.027,0.574-0.056,0.729H769.089z M772.086,259.049c0.015-0.631-0.266-1.667-1.414-1.667
,,c-1.064,0-1.513,0.966-1.583,1.667H772.086z"/>
,<path d="M780.109,262.971c-0.365,0.168-1.079,0.35-1.934,0.35c-2.129,0-3.516-1.358-3.516-3.474c0-2.045,1.4-3.642,3.795-3.642
,,c0.631,0,1.275,0.14,1.668,0.322l-0.309,1.288c-0.28-0.126-0.687-0.266-1.303-0.266c-1.316,0-2.102,0.967-2.087,2.213
,,c0,1.401,0.91,2.199,2.087,2.199c0.603,0,1.022-0.126,1.359-0.266L780.109,262.971z"/>
,<path d="M787.74,259.708c0,2.507-1.766,3.628-3.502,3.628c-1.934,0-3.418-1.331-3.418-3.517c0-2.24,1.471-3.613,3.529-3.613
,,C786.381,256.206,787.74,257.634,787.74,259.708z M782.599,259.777c0,1.317,0.645,2.312,1.695,2.312
,,c0.98,0,1.667-0.967,1.667-2.339c0-1.064-0.477-2.283-1.653-2.283C783.089,257.466,782.599,258.643,782.599,259.777z"/>
,<path d="M789.15,253.236h1.736v9.945h-1.736V253.236z"/>
,<path d="M799.233,259.708c0,2.507-1.765,3.628-3.502,3.628c-1.933,0-3.418-1.331-3.418-3.517c0-2.24,1.471-3.613,3.53-3.613
,,C797.875,256.206,799.233,257.634,799.233,259.708z M794.092,259.777c0,1.317,0.645,2.312,1.695,2.312
,,c0.98,0,1.667-0.967,1.667-2.339c0-1.064-0.476-2.283-1.653-2.283C794.582,257.466,794.092,258.643,794.092,259.777z"/>
,<path d="M806.877,256.36c-0.027,0.462-0.056,1.022-0.056,1.961v3.866c0,1.429-0.294,2.451-1.009,3.096
,,c-0.715,0.63-1.695,0.826-2.633,0.826c-0.869,0-1.793-0.183-2.382-0.547l0.378-1.303c0.435,0.253,1.163,0.519,1.989,0.519
,,c1.12,0,1.961-0.588,1.961-2.059v-0.589h-0.028c-0.392,0.603-1.092,1.009-1.988,1.009c-1.695,0-2.9-1.4-2.9-3.334
,,c0-2.241,1.457-3.6,3.096-3.6c1.037,0,1.653,0.504,1.976,1.064h0.028l0.07-0.91H806.877z M805.098,259.091
,,c0-0.154-0.014-0.322-0.056-0.463c-0.183-0.63-0.673-1.106-1.401-1.106c-0.966,0-1.68,0.841-1.68,2.228
,,c0,1.162,0.588,2.101,1.666,2.101c0.645,0,1.205-0.42,1.401-1.036c0.042-0.183,0.069-0.42,0.069-0.616V259.091z"/>
,<path d="M809.744,256.36l1.232,3.655c0.141,0.421,0.281,0.938,0.379,1.331h0.041c0.113-0.393,0.238-0.896,0.365-1.345l1.064-3.642
,,h1.849l-1.709,4.65c-0.938,2.549-1.569,3.684-2.381,4.384c-0.673,0.603-1.373,0.827-1.808,0.883l-0.392-1.457
,,c0.294-0.069,0.658-0.224,1.009-0.476c0.322-0.211,0.699-0.617,0.938-1.079c0.07-0.126,0.113-0.224,0.113-0.308
,,c0-0.07-0.015-0.169-0.099-0.337l-2.493-6.261H809.744z"/>
</g>
<g>
,<defs>
,,<rect id="SVGID_1_" y="867" width="468" height="33"/>
,</defs>
,<clipPath id="SVGID_2_">
,,<use xlink:href="#SVGID_1_"  overflow="visible"/>
,</clipPath>
,<g clip-path="url(#SVGID_2_)">
,,<text transform="matrix(1 0 0 1 0 883)" font-family="'TimesNewRomanPS-ItalicMT'" font-size="12">K.</text>
,</g>
</g>
<g>
,<defs>
,,<rect id="SVGID_3_" y="867" width="468" height="33"/>
,</defs>
,<clipPath id="SVGID_4_">
,,<use xlink:href="#SVGID_3_"  overflow="visible"/>
,</clipPath>
,<g clip-path="url(#SVGID_4_)">
,,<text transform="matrix(1 0 0 1 11.0039 883)" font-family="'TimesNewRomanPS-ItalicMT'" font-size="12"> </text>
,</g>
</g>
<g>
,<defs>
,,<rect id="SVGID_5_" y="867" width="468" height="33"/>
,</defs>
,<clipPath id="SVGID_6_">
,,<use xlink:href="#SVGID_5_"  overflow="visible"/>
,</clipPath>
,<g clip-path="url(#SVGID_6_)">
,,<path d="M16.658,877.697l-0.404,1.348c0.426-0.5,0.806-0.85,1.14-1.049s0.675-0.299,1.022-0.299s0.645,0.138,0.891,0.413
,,,s0.369,0.634,0.369,1.075c0,0.859-0.35,1.733-1.049,2.622s-1.514,1.333-2.443,1.333c-0.195,0-0.368-0.021-0.519-0.064
,,,s-0.319-0.119-0.507-0.229l-0.428,1.512c-0.086,0.297-0.129,0.49-0.129,0.58c0,0.086,0.022,0.159,0.067,0.22
,,,s0.118,0.107,0.22,0.141s0.303,0.05,0.604,0.05l-0.053,0.217h-2.76l0.059-0.217c0.363-0.016,0.608-0.078,0.735-0.188
,,,s0.261-0.412,0.401-0.908l1.482-5.133c0.09-0.324,0.135-0.525,0.135-0.604c0-0.105-0.03-0.188-0.091-0.246
,,,s-0.153-0.088-0.278-0.088c-0.113,0-0.271,0.014-0.475,0.041v-0.229L16.658,877.697z M15.293,882.385
,,,c0.242,0.289,0.568,0.434,0.979,0.434c0.203,0,0.41-0.057,0.621-0.17s0.417-0.281,0.618-0.504s0.382-0.479,0.542-0.771
,,,s0.304-0.634,0.431-1.028s0.19-0.785,0.19-1.172c0-0.312-0.071-0.552-0.214-0.718s-0.31-0.249-0.501-0.249
,,,c-0.422,0-0.839,0.242-1.251,0.727s-0.714,1.051-0.905,1.699L15.293,882.385z"/>
,,<path d="M22.652,877.697l-0.779,2.666c0.73-1.09,1.29-1.807,1.679-2.15s0.763-0.516,1.122-0.516c0.195,0,0.356,0.064,0.483,0.193
,,,s0.19,0.297,0.19,0.504c0,0.234-0.057,0.547-0.17,0.938l-0.715,2.467c-0.082,0.285-0.123,0.459-0.123,0.521
,,,c0,0.055,0.016,0.101,0.047,0.138s0.064,0.056,0.1,0.056c0.047,0,0.104-0.025,0.17-0.076c0.207-0.164,0.434-0.414,0.68-0.75
,,,l0.182,0.111c-0.363,0.52-0.707,0.891-1.031,1.113c-0.227,0.152-0.43,0.229-0.609,0.229c-0.145,0-0.26-0.044-0.346-0.132
,,,s-0.129-0.206-0.129-0.354c0-0.188,0.066-0.51,0.199-0.967l0.68-2.355c0.086-0.293,0.129-0.521,0.129-0.686
,,,c0-0.078-0.025-0.142-0.076-0.19s-0.113-0.073-0.188-0.073c-0.109,0-0.24,0.047-0.393,0.141c-0.289,0.176-0.59,0.466-0.902,0.87
,,,s-0.643,0.921-0.99,1.55c-0.184,0.332-0.336,0.695-0.457,1.09L21.111,883h-0.879l1.066-3.668c0.125-0.441,0.188-0.707,0.188-0.797
,,,c0-0.086-0.034-0.161-0.103-0.226s-0.153-0.097-0.255-0.097c-0.047,0-0.129,0.008-0.246,0.023l-0.223,0.035l-0.035-0.211
,,,L22.652,877.697z"/>
,,<path d="M27.434,880.791c-0.027,0.195-0.041,0.357-0.041,0.486c0,0.348,0.123,0.644,0.369,0.888s0.545,0.366,0.896,0.366
,,,c0.281,0,0.552-0.058,0.812-0.173s0.646-0.37,1.157-0.765l0.123,0.17c-0.926,0.918-1.809,1.377-2.648,1.377
,,,c-0.57,0-1-0.18-1.289-0.539s-0.434-0.756-0.434-1.189c0-0.582,0.18-1.178,0.539-1.787s0.811-1.083,1.354-1.421
,,,s1.102-0.507,1.676-0.507c0.414,0,0.721,0.084,0.92,0.252s0.299,0.367,0.299,0.598c0,0.324-0.129,0.635-0.387,0.932
,,,c-0.34,0.387-0.84,0.699-1.5,0.938C28.842,880.576,28.227,880.701,27.434,880.791z M27.475,880.504
,,,c0.578-0.066,1.049-0.18,1.412-0.34c0.48-0.215,0.841-0.472,1.081-0.771s0.36-0.583,0.36-0.853c0-0.164-0.052-0.297-0.155-0.398
,,,s-0.251-0.152-0.442-0.152c-0.398,0-0.821,0.212-1.269,0.636S27.686,879.676,27.475,880.504z"/>
,,<path d="M36.979,877.838l-1.02,3.492c-0.152,0.52-0.229,0.848-0.229,0.984c0,0.07,0.013,0.122,0.038,0.155s0.06,0.05,0.103,0.05
,,,c0.066,0,0.14-0.03,0.22-0.091s0.282-0.302,0.606-0.724l0.176,0.135c-0.309,0.488-0.625,0.848-0.949,1.078
,,,c-0.215,0.148-0.422,0.223-0.621,0.223c-0.152,0-0.271-0.043-0.357-0.129s-0.129-0.197-0.129-0.334
,,,c0-0.133,0.025-0.309,0.076-0.527c0.062-0.289,0.24-0.918,0.533-1.887c-0.664,1.09-1.22,1.842-1.667,2.256
,,,s-0.862,0.621-1.245,0.621c-0.18,0-0.332-0.062-0.457-0.188s-0.188-0.283-0.188-0.475c0-0.293,0.086-0.742,0.258-1.348l0.51-1.811
,,,c0.125-0.434,0.188-0.703,0.188-0.809c0-0.047-0.017-0.087-0.05-0.12s-0.069-0.05-0.108-0.05c-0.082,0-0.164,0.029-0.246,0.088
,,,s-0.268,0.275-0.557,0.65l-0.182-0.129c0.293-0.453,0.604-0.787,0.932-1.002c0.25-0.168,0.48-0.252,0.691-0.252
,,,c0.145,0,0.263,0.046,0.354,0.138s0.138,0.21,0.138,0.354c0,0.211-0.078,0.588-0.234,1.131l-0.551,1.893
,,,c-0.152,0.516-0.229,0.842-0.229,0.979c0,0.074,0.024,0.134,0.073,0.179s0.114,0.067,0.196,0.067c0.129,0,0.297-0.064,0.504-0.193
,,,s0.483-0.415,0.829-0.858s0.631-0.859,0.855-1.248s0.464-1.007,0.718-1.854l0.129-0.445H36.979z"/>
,,<path d="M39.932,877.697l-0.762,2.643c0.34-0.621,0.629-1.088,0.867-1.4c0.371-0.484,0.732-0.836,1.084-1.055
,,,c0.207-0.125,0.424-0.188,0.65-0.188c0.195,0,0.357,0.062,0.486,0.188s0.193,0.285,0.193,0.48c0,0.191-0.045,0.441-0.135,0.75
,,,l-0.416,1.488c0.637-1.191,1.24-2.027,1.811-2.508c0.316-0.266,0.629-0.398,0.938-0.398c0.18,0,0.327,0.062,0.442,0.185
,,,s0.173,0.313,0.173,0.571c0,0.227-0.035,0.467-0.105,0.721l-0.645,2.279c-0.141,0.496-0.211,0.771-0.211,0.826
,,,s0.018,0.102,0.053,0.141c0.023,0.027,0.055,0.041,0.094,0.041s0.107-0.037,0.205-0.111c0.223-0.172,0.432-0.398,0.627-0.68
,,,l0.193,0.123c-0.098,0.156-0.271,0.371-0.519,0.645s-0.46,0.459-0.636,0.557s-0.338,0.146-0.486,0.146
,,,c-0.137,0-0.251-0.047-0.343-0.141s-0.138-0.209-0.138-0.346c0-0.188,0.08-0.564,0.24-1.131l0.533-1.881
,,,c0.121-0.434,0.186-0.674,0.193-0.721c0.012-0.074,0.018-0.146,0.018-0.217c0-0.098-0.021-0.174-0.064-0.229
,,,c-0.047-0.055-0.1-0.082-0.158-0.082c-0.164,0-0.338,0.084-0.521,0.252c-0.539,0.496-1.043,1.191-1.512,2.086
,,,c-0.309,0.59-0.598,1.346-0.867,2.268H40.33l1.002-3.545c0.109-0.383,0.164-0.639,0.164-0.768c0-0.105-0.021-0.184-0.064-0.234
,,,s-0.096-0.076-0.158-0.076c-0.129,0-0.266,0.047-0.41,0.141c-0.234,0.152-0.536,0.479-0.905,0.979s-0.655,0.979-0.858,1.436
,,,c-0.098,0.215-0.33,0.904-0.697,2.068h-0.867l1.084-3.797l0.141-0.492c0.027-0.074,0.041-0.129,0.041-0.164
,,,c0-0.086-0.039-0.163-0.117-0.231s-0.178-0.103-0.299-0.103c-0.051,0-0.191,0.023-0.422,0.07l-0.053-0.217L39.932,877.697z"/>
,,<path d="M51.545,879.531c0,0.586-0.155,1.166-0.466,1.74s-0.743,1.029-1.298,1.365s-1.094,0.504-1.617,0.504
,,,c-0.535,0-0.972-0.171-1.31-0.513s-0.507-0.784-0.507-1.327c0-0.574,0.165-1.15,0.495-1.729s0.771-1.035,1.324-1.371
,,,s1.087-0.504,1.603-0.504s0.94,0.17,1.274,0.51S51.545,878.988,51.545,879.531z M50.572,879.127c0-0.363-0.089-0.642-0.267-0.835
,,,s-0.407-0.29-0.688-0.29c-0.574,0-1.103,0.411-1.585,1.233s-0.724,1.64-0.724,2.452c0,0.371,0.094,0.657,0.281,0.858
,,,s0.424,0.302,0.709,0.302c0.551,0,1.067-0.409,1.55-1.228S50.572,879.971,50.572,879.127z"/>
,,<path d="M54.645,877.697l-0.779,2.666c0.73-1.09,1.29-1.807,1.679-2.15s0.763-0.516,1.122-0.516c0.195,0,0.356,0.064,0.483,0.193
,,,s0.19,0.297,0.19,0.504c0,0.234-0.057,0.547-0.17,0.938l-0.715,2.467c-0.082,0.285-0.123,0.459-0.123,0.521
,,,c0,0.055,0.016,0.101,0.047,0.138s0.064,0.056,0.1,0.056c0.047,0,0.104-0.025,0.17-0.076c0.207-0.164,0.434-0.414,0.68-0.75
,,,l0.182,0.111c-0.363,0.52-0.707,0.891-1.031,1.113c-0.227,0.152-0.43,0.229-0.609,0.229c-0.145,0-0.26-0.044-0.346-0.132
,,,s-0.129-0.206-0.129-0.354c0-0.188,0.066-0.51,0.199-0.967l0.68-2.355c0.086-0.293,0.129-0.521,0.129-0.686
,,,c0-0.078-0.025-0.142-0.076-0.19s-0.113-0.073-0.188-0.073c-0.109,0-0.24,0.047-0.393,0.141c-0.289,0.176-0.59,0.466-0.902,0.87
,,,s-0.643,0.921-0.99,1.55c-0.184,0.332-0.336,0.695-0.457,1.09L53.104,883h-0.879l1.066-3.668c0.125-0.441,0.188-0.707,0.188-0.797
,,,c0-0.086-0.034-0.161-0.103-0.226s-0.153-0.097-0.255-0.097c-0.047,0-0.129,0.008-0.246,0.023l-0.223,0.035l-0.035-0.211
,,,L54.645,877.697z"/>
,,<path d="M60.756,877.697l-1.16,4.107c-0.078,0.277-0.117,0.443-0.117,0.498c0,0.062,0.019,0.113,0.056,0.152
,,,s0.081,0.059,0.132,0.059c0.059,0,0.129-0.031,0.211-0.094c0.223-0.176,0.447-0.426,0.674-0.75l0.205,0.135
,,,c-0.266,0.406-0.578,0.748-0.938,1.025c-0.266,0.207-0.52,0.311-0.762,0.311c-0.16,0-0.291-0.048-0.393-0.144
,,,s-0.152-0.216-0.152-0.36s0.049-0.385,0.146-0.721l0.762-2.625c0.125-0.43,0.188-0.699,0.188-0.809
,,,c0-0.086-0.03-0.156-0.091-0.211s-0.144-0.082-0.249-0.082c-0.086,0-0.264,0.021-0.533,0.064v-0.229L60.756,877.697z
,,, M60.68,875.371c0.164,0,0.303,0.057,0.416,0.17s0.17,0.252,0.17,0.416c0,0.16-0.058,0.298-0.173,0.413s-0.253,0.173-0.413,0.173
,,,s-0.298-0.058-0.413-0.173s-0.173-0.253-0.173-0.413c0-0.164,0.057-0.303,0.17-0.416S60.516,875.371,60.68,875.371z"/>
,,<path d="M66.961,877.697l-1.143,3.973l-0.129,0.533c-0.012,0.051-0.018,0.094-0.018,0.129c0,0.062,0.02,0.117,0.059,0.164
,,,c0.031,0.035,0.07,0.053,0.117,0.053c0.051,0,0.117-0.031,0.199-0.094c0.152-0.113,0.355-0.348,0.609-0.703l0.199,0.141
,,,c-0.27,0.406-0.547,0.716-0.832,0.929s-0.549,0.319-0.791,0.319c-0.168,0-0.294-0.042-0.378-0.126s-0.126-0.206-0.126-0.366
,,,c0-0.191,0.043-0.443,0.129-0.756l0.123-0.439c-0.512,0.668-0.982,1.135-1.412,1.4c-0.309,0.191-0.611,0.287-0.908,0.287
,,,c-0.285,0-0.531-0.118-0.738-0.354s-0.311-0.562-0.311-0.976c0-0.621,0.187-1.276,0.56-1.966s0.847-1.241,1.421-1.655
,,,c0.449-0.328,0.873-0.492,1.271-0.492c0.238,0,0.437,0.062,0.595,0.188s0.278,0.332,0.36,0.621l0.211-0.668L66.961,877.697z
,,, M64.875,878.002c-0.25,0-0.516,0.117-0.797,0.352c-0.398,0.332-0.753,0.824-1.063,1.477s-0.466,1.242-0.466,1.77
,,,c0,0.266,0.066,0.476,0.199,0.63s0.285,0.231,0.457,0.231c0.426,0,0.889-0.314,1.389-0.943c0.668-0.836,1.002-1.693,1.002-2.572
,,,c0-0.332-0.064-0.572-0.193-0.721S65.098,878.002,64.875,878.002z"/>
,,<path d="M68.76,880.791c-0.027,0.195-0.041,0.357-0.041,0.486c0,0.348,0.123,0.644,0.369,0.888s0.545,0.366,0.896,0.366
,,,c0.281,0,0.552-0.058,0.812-0.173s0.646-0.37,1.157-0.765l0.123,0.17c-0.926,0.918-1.809,1.377-2.648,1.377
,,,c-0.57,0-1-0.18-1.289-0.539s-0.434-0.756-0.434-1.189c0-0.582,0.18-1.178,0.539-1.787s0.811-1.083,1.354-1.421
,,,s1.102-0.507,1.676-0.507c0.414,0,0.721,0.084,0.92,0.252s0.299,0.367,0.299,0.598c0,0.324-0.129,0.635-0.387,0.932
,,,c-0.34,0.387-0.84,0.699-1.5,0.938C70.168,880.576,69.553,880.701,68.76,880.791z M68.801,880.504
,,,c0.578-0.066,1.049-0.18,1.412-0.34c0.48-0.215,0.841-0.472,1.081-0.771s0.36-0.583,0.36-0.853c0-0.164-0.052-0.297-0.155-0.398
,,,s-0.251-0.152-0.442-0.152c-0.398,0-0.821,0.212-1.269,0.636S69.012,879.676,68.801,880.504z"/>
,</g>
</g>
<g>
,<defs>
,,<rect id="SVGID_7_" y="867" width="468" height="33"/>
,</defs>
,<clipPath id="SVGID_8_">
,,<use xlink:href="#SVGID_7_"  overflow="visible"/>
,</clipPath>
,<g clip-path="url(#SVGID_8_)">
,,<text transform="matrix(1 0 0 1 75.6562 883)" font-family="'TimesNewRomanPSMT'" font-size="12"> </text>
,</g>
</g>
<g>
,<path d="M479.842,259.329c-0.057-1.218-0.126-2.689-0.111-3.964h-0.043c-0.309,1.148-0.7,2.424-1.121,3.614l-1.372,4.09h-1.331
,,l-1.26-4.034c-0.365-1.204-0.701-2.493-0.953-3.67h-0.027c-0.043,1.232-0.099,2.731-0.168,4.021l-0.211,3.796h-1.611l0.631-9.441
,,h2.27l1.232,3.796c0.336,1.107,0.631,2.228,0.869,3.278h0.041c0.252-1.022,0.574-2.186,0.939-3.292l1.303-3.782h2.24l0.547,9.441
,,h-1.682L479.842,259.329z"/>
,<path d="M484.668,260.253c0.042,1.232,1.009,1.765,2.102,1.765c0.799,0,1.373-0.111,1.891-0.308l0.252,1.19
,,c-0.588,0.238-1.4,0.42-2.381,0.42c-2.213,0-3.516-1.358-3.516-3.445c0-1.892,1.148-3.67,3.334-3.67
,,c2.213,0,2.941,1.82,2.941,3.319c0,0.322-0.028,0.574-0.057,0.729H484.668z M487.666,259.049c0.014-0.631-0.267-1.667-1.415-1.667
,,c-1.064,0-1.513,0.966-1.583,1.667H487.666z"/>
,<path d="M496.963,253.236v8.026c0,0.7,0.027,1.457,0.056,1.919h-1.541l-0.069-1.078h-0.029c-0.406,0.756-1.232,1.232-2.227,1.232
,,c-1.625,0-2.914-1.387-2.914-3.488c-0.014-2.283,1.416-3.642,3.055-3.642c0.938,0,1.61,0.392,1.918,0.896h0.029v-3.866H496.963z
,, M495.24,259.203c0-0.14-0.015-0.308-0.043-0.448c-0.154-0.672-0.7-1.219-1.484-1.219c-1.107,0-1.723,0.981-1.723,2.256
,,c0,1.246,0.615,2.157,1.709,2.157c0.699,0,1.316-0.477,1.484-1.219c0.042-0.154,0.057-0.322,0.057-0.505V259.203z"/>
,<path d="M500.642,254.455c0,0.519-0.378,0.925-0.98,0.925c-0.574,0-0.952-0.406-0.952-0.925c0-0.532,0.393-0.938,0.967-0.938
,,C500.264,253.516,500.628,253.922,500.642,254.455z M498.807,263.181v-6.821h1.737v6.821H498.807z"/>
,<path d="M507.406,262.971c-0.365,0.168-1.079,0.35-1.934,0.35c-2.129,0-3.516-1.358-3.516-3.474c0-2.045,1.4-3.642,3.795-3.642
,,c0.631,0,1.275,0.14,1.668,0.322l-0.309,1.288c-0.28-0.126-0.687-0.266-1.303-0.266c-1.316,0-2.102,0.967-2.087,2.213
,,c0,1.401,0.91,2.199,2.087,2.199c0.603,0,1.022-0.126,1.359-0.266L507.406,262.971z"/>
,<path d="M512.516,263.181l-0.113-0.757h-0.041c-0.42,0.533-1.135,0.911-2.018,0.911c-1.373,0-2.143-0.995-2.143-2.031
,,c0-1.723,1.526-2.592,4.048-2.577v-0.112c0-0.448-0.183-1.19-1.387-1.19c-0.673,0-1.373,0.21-1.835,0.504l-0.336-1.12
,,c0.504-0.309,1.387-0.603,2.465-0.603c2.186,0,2.815,1.387,2.815,2.871v2.466c0,0.616,0.028,1.219,0.099,1.639H512.516z
,, M512.291,259.847c-1.219-0.028-2.381,0.238-2.381,1.274c0,0.673,0.434,0.981,0.98,0.981c0.686,0,1.189-0.448,1.344-0.938
,,c0.043-0.127,0.057-0.267,0.057-0.379V259.847z"/>
,<path d="M515.789,253.236h1.736v9.945h-1.736V253.236z"/>
</g>
<g>
,<path d="M372.508,259.329c-0.056-1.218-0.126-2.689-0.112-3.964h-0.042c-0.308,1.148-0.7,2.424-1.121,3.614l-1.373,4.09h-1.331
,,l-1.261-4.034c-0.364-1.204-0.7-2.493-0.953-3.67h-0.028c-0.042,1.232-0.098,2.731-0.168,4.021l-0.21,3.796H364.3l0.63-9.441h2.269
,,l1.233,3.796c0.336,1.107,0.63,2.228,0.869,3.278h0.042c0.252-1.022,0.574-2.186,0.938-3.292l1.303-3.782h2.241l0.546,9.441h-1.681
,,L372.508,259.329z"/>
,<path d="M379.94,263.181l-0.112-0.757h-0.042c-0.42,0.533-1.134,0.911-2.017,0.911c-1.373,0-2.143-0.995-2.143-2.031
,,c0-1.723,1.527-2.592,4.048-2.577v-0.112c0-0.448-0.182-1.19-1.387-1.19c-0.672,0-1.373,0.21-1.835,0.504l-0.336-1.12
,,c0.504-0.309,1.387-0.603,2.465-0.603c2.185,0,2.815,1.387,2.815,2.871v2.466c0,0.616,0.028,1.219,0.098,1.639H379.94z
,, M379.716,259.847c-1.219-0.028-2.381,0.238-2.381,1.274c0,0.673,0.434,0.981,0.98,0.981c0.687,0,1.19-0.448,1.345-0.938
,,c0.042-0.127,0.056-0.267,0.056-0.379V259.847z"/>
,<path d="M385.105,254.413v1.947h1.639v1.288h-1.639v3.012c0,0.826,0.224,1.261,0.883,1.261c0.294,0,0.518-0.042,0.672-0.084
,,l0.028,1.316c-0.252,0.099-0.7,0.168-1.247,0.168c-0.63,0-1.163-0.21-1.485-0.56c-0.364-0.393-0.532-1.009-0.532-1.905v-3.208
,,h-0.98v-1.288h0.98v-1.541L385.105,254.413z"/>
,<path d="M389.178,260.253c0.042,1.232,1.009,1.765,2.101,1.765c0.799,0,1.373-0.111,1.891-0.308l0.252,1.19
,,c-0.588,0.238-1.401,0.42-2.381,0.42c-2.213,0-3.516-1.358-3.516-3.445c0-1.892,1.148-3.67,3.334-3.67
,,c2.213,0,2.941,1.82,2.941,3.319c0,0.322-0.028,0.574-0.056,0.729H389.178z M392.176,259.049c0.014-0.631-0.266-1.667-1.415-1.667
,,c-1.064,0-1.513,0.966-1.583,1.667H392.176z"/>
,<path d="M395.184,258.559c0-0.925-0.014-1.583-0.056-2.199h1.499l0.056,1.303h0.056c0.336-0.967,1.134-1.457,1.863-1.457
,,c0.168,0,0.266,0.014,0.406,0.042v1.625c-0.14-0.028-0.294-0.057-0.504-0.057c-0.826,0-1.387,0.532-1.541,1.303
,,c-0.028,0.154-0.056,0.337-0.056,0.532v3.53h-1.723V258.559z"/>
,<path d="M400.167,258.39c0-0.784-0.014-1.442-0.056-2.03h1.513l0.084,1.022h0.042c0.294-0.532,1.037-1.177,2.171-1.177
,,c1.19,0,2.423,0.771,2.423,2.928v4.048h-1.723v-3.853c0-0.98-0.364-1.723-1.303-1.723c-0.687,0-1.163,0.49-1.345,1.009
,,c-0.056,0.154-0.07,0.364-0.07,0.561v4.006h-1.737V258.39z"/>
,<path d="M410.01,254.455c0,0.519-0.378,0.925-0.98,0.925c-0.574,0-0.952-0.406-0.952-0.925c0-0.532,0.392-0.938,0.966-0.938
,,C409.632,253.516,409.997,253.922,410.01,254.455z M408.175,263.181v-6.821h1.737v6.821H408.175z"/>
,<path d="M413.734,254.413v1.947h1.639v1.288h-1.639v3.012c0,0.826,0.224,1.261,0.883,1.261c0.294,0,0.518-0.042,0.672-0.084
,,l0.028,1.316c-0.252,0.099-0.7,0.168-1.247,0.168c-0.63,0-1.163-0.21-1.485-0.56c-0.364-0.393-0.532-1.009-0.532-1.905v-3.208
,,h-0.98v-1.288h0.98v-1.541L413.734,254.413z"/>
,<path d="M417.85,256.36l1.233,3.655c0.14,0.421,0.28,0.938,0.378,1.331h0.042c0.112-0.393,0.238-0.896,0.364-1.345l1.065-3.642
,,h1.849l-1.709,4.65c-0.938,2.549-1.569,3.684-2.381,4.384c-0.672,0.603-1.373,0.827-1.807,0.883l-0.392-1.457
,,c0.294-0.069,0.658-0.224,1.008-0.476c0.322-0.211,0.701-0.617,0.938-1.079c0.07-0.126,0.112-0.224,0.112-0.308
,,c0-0.07-0.014-0.169-0.098-0.337l-2.493-6.261H417.85z"/>
</g>
<g>
,<path d="M294.666,86.515v-9.441h1.961l2.438,4.049c0.63,1.05,1.176,2.143,1.611,3.165h0.028c-0.112-1.261-0.154-2.479-0.154-3.922
,,v-3.292h1.597v9.441h-1.779l-2.465-4.146c-0.603-1.036-1.233-2.199-1.695-3.264l-0.042,0.015c0.07,1.218,0.084,2.465,0.084,4.02
,,v3.376H294.666z"/>
,<path d="M310.167,84.47c0,0.812,0.028,1.484,0.056,2.045h-1.513l-0.084-1.036h-0.028c-0.294,0.49-0.966,1.19-2.185,1.19
,,c-1.247,0-2.381-0.742-2.381-2.97v-4.006h1.723v3.712c0,1.135,0.364,1.862,1.274,1.862c0.687,0,1.135-0.49,1.317-0.924
,,c0.056-0.154,0.098-0.337,0.098-0.532v-4.118h1.723V84.47z"/>
,<path d="M312.025,81.893c0-0.925-0.014-1.583-0.056-2.199h1.499l0.056,1.303h0.056c0.336-0.967,1.134-1.457,1.863-1.457
,,c0.168,0,0.266,0.014,0.406,0.042v1.625c-0.14-0.028-0.294-0.057-0.504-0.057c-0.826,0-1.387,0.532-1.541,1.303
,,c-0.028,0.154-0.056,0.337-0.056,0.532v3.53h-1.723V81.893z"/>
,<path d="M319.978,77.199c0.546-0.111,1.541-0.195,2.507-0.195c1.274,0,2.059,0.153,2.704,0.602c0.588,0.351,0.98,0.967,0.98,1.766
,,c0,0.868-0.546,1.667-1.569,2.045v0.028c0.995,0.252,1.905,1.036,1.905,2.339c0,0.841-0.364,1.499-0.91,1.947
,,c-0.673,0.588-1.779,0.882-3.502,0.882c-0.953,0-1.681-0.069-2.115-0.126V77.199z M321.687,80.926h0.882
,,c1.19,0,1.863-0.561,1.863-1.359c0-0.882-0.672-1.288-1.765-1.288c-0.504,0-0.798,0.028-0.98,0.07V80.926z M321.687,85.268
,,c0.224,0.028,0.518,0.042,0.91,0.042c1.107,0,2.087-0.42,2.087-1.582c0-1.093-0.953-1.541-2.143-1.541h-0.854V85.268z"/>
</g>
<g>
,<path d="M294.666,135.181v-9.441h1.961l2.438,4.049c0.63,1.05,1.176,2.143,1.611,3.165h0.028c-0.112-1.261-0.154-2.479-0.154-3.922
,,v-3.292h1.597v9.441h-1.779l-2.465-4.146c-0.603-1.036-1.233-2.199-1.695-3.264l-0.042,0.015c0.07,1.218,0.084,2.465,0.084,4.02
,,v3.376H294.666z"/>
,<path d="M310.167,133.136c0,0.812,0.028,1.484,0.056,2.045h-1.513l-0.084-1.036h-0.028c-0.294,0.49-0.966,1.19-2.185,1.19
,,c-1.247,0-2.381-0.742-2.381-2.97v-4.006h1.723v3.712c0,1.135,0.364,1.862,1.274,1.862c0.687,0,1.135-0.49,1.317-0.924
,,c0.056-0.154,0.098-0.337,0.098-0.532v-4.118h1.723V133.136z"/>
,<path d="M312.025,130.559c0-0.925-0.014-1.583-0.056-2.199h1.499l0.056,1.303h0.056c0.336-0.967,1.134-1.457,1.863-1.457
,,c0.168,0,0.266,0.014,0.406,0.042v1.625c-0.14-0.028-0.294-0.057-0.504-0.057c-0.826,0-1.387,0.532-1.541,1.303
,,c-0.028,0.154-0.056,0.337-0.056,0.532v3.53h-1.723V130.559z"/>
,<path d="M321.869,132.505l-0.812,2.676h-1.779l3.026-9.441h2.199l3.067,9.441h-1.849l-0.854-2.676H321.869z M324.572,131.203
,,l-0.742-2.325c-0.182-0.574-0.336-1.219-0.476-1.765h-0.028c-0.14,0.546-0.28,1.205-0.448,1.765l-0.729,2.325H324.572z"/>
</g>
<g>
,<path d="M35.333,135.181v-9.441h1.961l2.438,4.049c0.63,1.05,1.176,2.143,1.611,3.165h0.028c-0.112-1.261-0.154-2.479-0.154-3.922
,,v-3.292h1.597v9.441h-1.779l-2.465-4.146c-0.603-1.036-1.233-2.199-1.695-3.264l-0.042,0.015c0.07,1.218,0.084,2.465,0.084,4.02
,,v3.376H35.333z"/>
,<path d="M50.833,133.136c0,0.812,0.028,1.484,0.056,2.045h-1.513l-0.084-1.036h-0.028c-0.294,0.49-0.966,1.19-2.185,1.19
,,c-1.247,0-2.381-0.742-2.381-2.97v-4.006h1.723v3.712c0,1.135,0.364,1.862,1.274,1.862c0.687,0,1.135-0.49,1.317-0.924
,,c0.056-0.154,0.098-0.337,0.098-0.532v-4.118h1.723V133.136z"/>
,<path d="M52.692,130.559c0-0.925-0.014-1.583-0.056-2.199h1.499l0.056,1.303h0.056c0.336-0.967,1.134-1.457,1.863-1.457
,,c0.168,0,0.266,0.014,0.406,0.042v1.625c-0.14-0.028-0.294-0.057-0.504-0.057c-0.826,0-1.387,0.532-1.541,1.303
,,c-0.028,0.154-0.056,0.337-0.056,0.532v3.53h-1.723V130.559z"/>
,<path d="M67.41,134.901c-0.406,0.21-1.303,0.42-2.438,0.42c-2.998,0-4.818-1.877-4.818-4.748c0-3.109,2.157-4.986,5.042-4.986
,,c1.135,0,1.947,0.237,2.297,0.42l-0.378,1.373c-0.448-0.196-1.064-0.364-1.849-0.364c-1.919,0-3.306,1.204-3.306,3.474
,,c0,2.073,1.219,3.403,3.292,3.403c0.7,0,1.429-0.14,1.877-0.35L67.41,134.901z"/>
</g>
<g>
,<path d="M103.624,261.304c0.56,0.322,1.4,0.603,2.283,0.603c1.106,0,1.723-0.519,1.723-1.289c0-0.714-0.476-1.135-1.681-1.568
,,c-1.555-0.561-2.549-1.387-2.549-2.746c0-1.541,1.289-2.717,3.333-2.717c1.023,0,1.779,0.224,2.27,0.476l-0.42,1.387
,,c-0.336-0.182-0.995-0.448-1.877-0.448c-1.093,0-1.569,0.589-1.569,1.135c0,0.729,0.546,1.064,1.807,1.555
,,c1.639,0.616,2.437,1.443,2.437,2.802c0,1.513-1.148,2.829-3.586,2.829c-0.994,0-2.031-0.279-2.549-0.588L103.624,261.304z"/>
,<path d="M116.969,261.136c0,0.812,0.028,1.484,0.056,2.045h-1.513l-0.084-1.036H115.4c-0.294,0.49-0.966,1.19-2.185,1.19
,,c-1.247,0-2.381-0.742-2.381-2.97v-4.006h1.723v3.712c0,1.135,0.364,1.862,1.274,1.862c0.687,0,1.135-0.49,1.317-0.924
,,c0.056-0.154,0.098-0.337,0.098-0.532v-4.118h1.723V261.136z"/>
,<path d="M118.827,258.559c0-0.925-0.014-1.583-0.056-2.199h1.499l0.056,1.303h0.056c0.336-0.967,1.134-1.457,1.863-1.457
,,c0.168,0,0.266,0.014,0.406,0.042v1.625c-0.14-0.028-0.294-0.057-0.504-0.057c-0.826,0-1.387,0.532-1.541,1.303
,,c-0.028,0.154-0.056,0.337-0.056,0.532v3.53h-1.723V258.559z"/>
,<path d="M129.932,256.36c-0.028,0.462-0.056,1.022-0.056,1.961v3.866c0,1.429-0.294,2.451-1.009,3.096
,,c-0.714,0.63-1.695,0.826-2.633,0.826c-0.869,0-1.793-0.183-2.381-0.547l0.378-1.303c0.435,0.253,1.163,0.519,1.989,0.519
,,c1.121,0,1.961-0.588,1.961-2.059v-0.589h-0.028c-0.392,0.603-1.093,1.009-1.989,1.009c-1.695,0-2.899-1.4-2.899-3.334
,,c0-2.241,1.457-3.6,3.096-3.6c1.037,0,1.653,0.504,1.975,1.064h0.028l0.07-0.91H129.932z M128.153,259.091
,,c0-0.154-0.014-0.322-0.056-0.463c-0.182-0.63-0.672-1.106-1.4-1.106c-0.967,0-1.681,0.841-1.681,2.228
,,c0,1.162,0.588,2.101,1.667,2.101c0.644,0,1.205-0.42,1.401-1.036c0.042-0.183,0.07-0.42,0.07-0.616V259.091z"/>
,<path d="M132.939,260.253c0.042,1.232,1.009,1.765,2.101,1.765c0.799,0,1.373-0.111,1.891-0.308l0.252,1.19
,,c-0.588,0.238-1.401,0.42-2.381,0.42c-2.213,0-3.516-1.358-3.516-3.445c0-1.892,1.148-3.67,3.334-3.67
,,c2.213,0,2.941,1.82,2.941,3.319c0,0.322-0.028,0.574-0.056,0.729H132.939z M135.937,259.049c0.014-0.631-0.266-1.667-1.415-1.667
,,c-1.064,0-1.513,0.966-1.583,1.667H135.937z"/>
,<path d="M138.945,258.559c0-0.925-0.014-1.583-0.056-2.199h1.499l0.056,1.303h0.056c0.336-0.967,1.134-1.457,1.863-1.457
,,c0.168,0,0.266,0.014,0.406,0.042v1.625c-0.14-0.028-0.294-0.057-0.504-0.057c-0.826,0-1.387,0.532-1.541,1.303
,,c-0.028,0.154-0.056,0.337-0.056,0.532v3.53h-1.723V258.559z"/>
,<path d="M145.315,256.36l1.233,3.655c0.14,0.421,0.28,0.938,0.378,1.331h0.042c0.112-0.393,0.238-0.896,0.364-1.345l1.065-3.642
,,h1.849l-1.709,4.65c-0.938,2.549-1.569,3.684-2.381,4.384c-0.672,0.603-1.373,0.827-1.807,0.883l-0.392-1.457
,,c0.294-0.069,0.658-0.224,1.008-0.476c0.322-0.211,0.701-0.617,0.938-1.079c0.07-0.126,0.112-0.224,0.112-0.308
,,c0-0.07-0.014-0.169-0.098-0.337l-2.493-6.261H145.315z"/>
</g>
<g>
,<path d="M236.328,135.181v-9.441h1.961l2.438,4.049c0.63,1.05,1.176,2.143,1.611,3.165h0.028c-0.112-1.261-0.154-2.479-0.154-3.922
,,v-3.292h1.597v9.441h-1.779l-2.465-4.146c-0.603-1.036-1.233-2.199-1.695-3.264l-0.042,0.015c0.07,1.218,0.084,2.465,0.084,4.02
,,v3.376H236.328z"/>
,<path d="M247.515,125.74v9.441h-1.723v-9.441H247.515z"/>
,<path d="M256.253,134.901c-0.406,0.21-1.303,0.42-2.438,0.42c-2.998,0-4.818-1.877-4.818-4.748c0-3.109,2.157-4.986,5.042-4.986
,,c1.135,0,1.947,0.237,2.297,0.42l-0.378,1.373c-0.448-0.196-1.064-0.364-1.849-0.364c-1.919,0-3.306,1.204-3.306,3.474
,,c0,2.073,1.219,3.403,3.292,3.403c0.7,0,1.429-0.14,1.877-0.35L256.253,134.901z"/>
,<path d="M259.429,125.74v5.505c0,1.85,0.771,2.704,1.933,2.704c1.247,0,1.989-0.854,1.989-2.704v-5.505h1.723v5.394
,,c0,2.913-1.499,4.202-3.768,4.202c-2.185,0-3.6-1.219-3.6-4.188v-5.407H259.429z"/>
</g>
<g>
,<path d="M173.662,125.866c0.616-0.111,1.471-0.195,2.633-0.195c1.261,0,2.185,0.266,2.788,0.77c0.56,0.463,0.924,1.205,0.924,2.088
,,c0,0.896-0.28,1.639-0.812,2.143c-0.686,0.687-1.765,1.009-2.983,1.009c-0.322,0-0.616-0.014-0.84-0.056v3.558h-1.709V125.866z
,, M175.371,130.264c0.21,0.057,0.49,0.07,0.84,0.07c1.289,0,2.073-0.63,2.073-1.737c0-1.05-0.729-1.61-1.919-1.61
,,c-0.476,0-0.812,0.042-0.994,0.084V130.264z"/>
,<path d="M183.21,125.74v9.441h-1.723v-9.441H183.21z"/>
,<path d="M191.949,134.901c-0.406,0.21-1.303,0.42-2.438,0.42c-2.998,0-4.818-1.877-4.818-4.748c0-3.109,2.157-4.986,5.042-4.986
,,c1.135,0,1.947,0.237,2.297,0.42l-0.378,1.373c-0.448-0.196-1.064-0.364-1.849-0.364c-1.919,0-3.306,1.204-3.306,3.474
,,c0,2.073,1.219,3.403,3.292,3.403c0.7,0,1.429-0.14,1.877-0.35L191.949,134.901z"/>
,<path d="M195.125,125.74v5.505c0,1.85,0.771,2.704,1.933,2.704c1.247,0,1.989-0.854,1.989-2.704v-5.505h1.723v5.394
,,c0,2.913-1.499,4.202-3.768,4.202c-2.185,0-3.6-1.219-3.6-4.188v-5.407H195.125z"/>
</g>
<g>
,<path d="M616.429,260.505l-0.812,2.676h-1.779l3.026-9.441h2.199l3.066,9.441h-1.848l-0.855-2.676H616.429z M619.132,259.203
,,l-0.742-2.325c-0.183-0.574-0.337-1.219-0.476-1.765h-0.029c-0.14,0.546-0.279,1.205-0.447,1.765l-0.729,2.325H619.132z"/>
,<path d="M625.164,253.74v9.441h-1.723v-9.441H625.164z"/>
,<path d="M633.902,262.901c-0.406,0.21-1.303,0.42-2.438,0.42c-2.997,0-4.818-1.877-4.818-4.748c0-3.109,2.158-4.986,5.043-4.986
,,c1.135,0,1.947,0.237,2.297,0.42l-0.378,1.373c-0.448-0.196-1.064-0.364-1.849-0.364c-1.92,0-3.307,1.204-3.307,3.474
,,c0,2.073,1.219,3.403,3.293,3.403c0.699,0,1.428-0.14,1.877-0.35L633.902,262.901z"/>
,<path d="M637.078,253.74v5.505c0,1.85,0.77,2.704,1.934,2.704c1.246,0,1.988-0.854,1.988-2.704v-5.505h1.723v5.394
,,c0,2.913-1.498,4.202-3.768,4.202c-2.186,0-3.6-1.219-3.6-4.188v-5.407H637.078z"/>
</g>
</svg>
